{"title":"Captain America The Winter Soldier 2014 DVDRIP XVID AC3 ACAB","uid":10666225,"size":1623725757,"categoryP":"video","categoryS":"movies","magnet":"?xt=urn:btih:eb8e4cac6134259063a00df40818e0af696caa21&amp;dn=Captain+America+The+Winter+Soldier+2014+DVDRIP+XVID+AC3+ACAB&amp;tr=udp%3A%2F%2Ftracker.openbittorrent.com%3A80&amp;tr=udp%3A%2F%2Fopen.demonii.com%3A1337&amp;tr=udp%3A%2F%2Ftracker.coppersurfer.tk%3A6969&amp;tr=udp%3A%2F%2Fexodus.desync.com%3A6969","seeders":2,"leechers":0,"uploader":"Xetron","files":3,"time":1406802006,"description":" &lt;a href=&quot;http://s3.postimg.org/6abbbzoo3/1966.jpg&quot; rel=&quot;nofollow&quot; target=&quot;_NEW&quot;&gt;http://s3.postimg.org/6abbbzoo3/1966.jpg&lt;/a&gt;\n\nFormat                                   : AVI\nFormat/Info                              : Audio Video Interleave\nFile size                                : 1.48 GiB\nDuration                                 : 2h 15mn\nOverall bit rate                         : 1 553 Kbps\n\nVideo\nID                                       : 0\nFormat                                   : MPEG-4 Visual\nFormat profile                           : Advanced Simple@L5\nFormat settings, BVOP                    : 2\nFormat settings, QPel                    : No\nFormat settings, GMC                     : No warppoints\nFormat settings, Matrix                  : Default (H.263)\nMuxing mode                              : Packed bitstream\nCodec ID                                 : XVID\nCodec ID/Hint                            : XviD\nDuration                                 : 2h 15mn\nBit rate                                 : 1 098 Kbps\nWidth                                    : 720 pixels\nHeight                                   : 304 pixels\nDisplay aspect ratio                     : 2.35:1\nFrame rate                               : 23.976 fps\nColor space                              : YUV\nChroma subsampling                       : 4:2:0\nBit depth                                : 8 bits\nScan type                                : Progressive\nCompression mode                         : Lossy\nBits/(Pixel*Frame)                       : 0.209\nStream size                              : 1.04 GiB (71%)\nWriting library                          : XviD 1.2.1 (UTC 2008-12-04)\n\nAudio\nID                                       : 1\nFormat                                   : AC-3\nFormat/Info                              : Audio Coding 3\nMode extension                           : CM (complete main)\nFormat settings, Endianness              : Big\nCodec ID                                 : 2000\nDuration                                 : 2h 15mn\nBit rate mode                            : Constant\nBit rate                                 : 448 Kbps\nChannel(s)                               : 6 channels\nChannel positions                        : Front: L C R, Side: L R, LFE\nSampling rate                            : 48.0 KHz\nBit depth                                : 16 bits\nCompression mode                         : Lossy\nStream size                              : 435 MiB (29%)\nAlignment                                : Aligned on interleaves\nInterleave, duration                     : 64 ms (1.54 video frames)\nInterleave, preload duration             : 192 ms\nTitle                                    : English\n\n &lt;a href=&quot;\nhttp://s8.postimg.org/khn1ev82t/image.png&quot; rel=&quot;nofollow&quot; target=&quot;_NEW&quot;&gt;\nhttp://s8.postimg.org/khn1ev82t/image.png&lt;/a&gt; &lt;a href=&quot;\nhttp://s8.postimg.org/8h1le50o5/image.png&quot; rel=&quot;nofollow&quot; target=&quot;_NEW&quot;&gt;\nhttp://s8.postimg.org/8h1le50o5/image.png&lt;/a&gt; &lt;a href=&quot;\nhttp://s8.postimg.org/v75bkv99h/image.png&quot; rel=&quot;nofollow&quot; target=&quot;_NEW&quot;&gt;\nhttp://s8.postimg.org/v75bkv99h/image.png&lt;/a&gt; &lt;a href=&quot;\nhttp://s8.postimg.org/uvnv83sth/image.png&quot; rel=&quot;nofollow&quot; target=&quot;_NEW&quot;&gt;\nhttp://s8.postimg.org/uvnv83sth/image.png&lt;/a&gt;\n","torrent":{"xt":"urn:btih:eb8e4cac6134259063a00df40818e0af696caa21","amp;dn":"Captain+America+The+Winter+Soldier+2014+DVDRIP+XVID+AC3+ACAB","amp;tr":["udp%3A%2F%2Ftracker.openbittorrent.com%3A80","udp%3A%2F%2Fopen.demonii.com%3A1337","udp%3A%2F%2Ftracker.coppersurfer.tk%3A6969","udp%3A%2F%2Fexodus.desync.com%3A6969"],"infoHash":"eb8e4cac6134259063a00df40818e0af696caa21","infoHashBuffer":{"type":"Buffer","data":[235,142,76,172,97,52,37,144,99,160,13,244,8,24,224,175,105,108,170,33]},"announce":[],"urlList":[]}}